<svg width="480" height="480" viewBox="0 0 480 480" fill="none" xmlns="http://www.w3.org/2000/svg">
<path d="M0 240C0 107.452 107.452 0 240 0C372.548 0 480 107.452 480 240C480 372.548 372.548 480 240 480C107.452 480 0 372.548 0 240Z" fill="#7866D5"/>
<path d="M217.495 108.749C127.495 108.749 89.9951 147.202 89.9951 198.749L89.9951 281.249C89.9951 332.795 127.495 371.249 217.495 371.249L304.683 371.249C386.245 371.249 389.995 361.406 389.995 344.999C389.995 326.25 382.495 318.749 363.745 318.749L217.495 318.749C172.495 318.749 149.995 296.3 149.995 273.749L149.995 266.249L363.745 266.249C378.745 266.249 389.995 256.405 389.995 239.999C389.995 223.593 378.745 213.749 363.745 213.749L149.995 213.749L149.995 206.249C149.995 183.697 172.495 161.249 217.495 161.249L363.745 161.249C382.495 161.249 389.995 153.748 389.995 134.999C389.995 118.592 386.245 108.749 304.683 108.749L217.495 108.749Z" fill="white"/>
</svg>
