<svg width="24" height="24" viewBox="0 0 24 24" fill="none" xmlns="http://www.w3.org/2000/svg">
<g id="Icon/coin infusion">
<path id="Subtract" fill-rule="evenodd" clip-rule="evenodd" d="M4.2336 5.07462C3.87159 5.43125 3.75 5.7435 3.75 6C3.75 6.2565 3.87159 6.56875 4.2336 6.92538C4.59826 7.28461 5.16441 7.64264 5.9245 7.95934C6.96989 8.39492 8.31481 8.72438 9.83905 8.88712C9.36884 9.2845 8.94511 9.73516 8.57716 10.2298C7.36849 10.0311 6.27176 9.72903 5.34758 9.34396C4.7502 9.09505 4.20802 8.80446 3.75 8.47222V10.0312C3.75 10.2876 3.87158 10.5998 4.23377 10.9565C4.59858 11.3157 5.16492 11.6738 5.92515 11.9905C6.36763 12.1749 6.86374 12.3402 7.40433 12.482C7.24868 12.9517 7.13539 13.4408 7.06899 13.9447C6.44767 13.7838 5.87045 13.5927 5.34829 13.3752C4.75064 13.1262 4.20821 12.8355 3.75 12.5031V14.0625C3.75 14.3188 3.87158 14.6311 4.23377 14.9877C4.59858 15.347 5.16492 15.7051 5.92515 16.0218C6.29138 16.1744 6.69434 16.3139 7.12886 16.4378C7.23441 17.0194 7.40284 17.5791 7.62684 18.1096C6.79102 17.9248 6.02361 17.6878 5.34829 17.4064C4.75064 17.1574 4.20821 16.8667 3.75 16.5344V18.0357C3.75 18.2845 3.86908 18.5913 4.23121 18.9445C4.59575 19.3001 5.16212 19.6549 5.92281 19.9688C6.90198 20.3729 8.14356 20.6847 9.5487 20.8552C10.3112 21.5654 11.2125 22.1284 12.2075 22.4991C12.1385 22.4997 12.0693 22.5 12 22.5C9.4421 22.5 7.09055 22.0734 5.35062 21.3554C4.48241 20.9971 3.73042 20.5515 3.18383 20.0183C2.63483 19.4828 2.25 18.8125 2.25 18.0357V14.0625V10.0312V6V5.96442C2.25 5.9488 2.25048 5.93329 2.25142 5.91791C2.27718 5.17354 2.65146 4.52762 3.18093 4.00604C3.72712 3.46798 4.47899 3.01795 5.34758 2.65604C7.08802 1.93086 9.44045 1.5 12 1.5C14.5596 1.5 16.912 1.93086 18.6524 2.65604C19.521 3.01795 20.2729 3.46798 20.8191 4.00604C21.3485 4.52762 21.7228 5.17354 21.7486 5.91791C21.7495 5.93329 21.75 5.9488 21.75 5.96442V6V10.0312V10.7042C21.3353 10.054 20.8293 9.46775 20.25 8.96349V8.47222C20.1453 8.5482 20.0361 8.62199 19.9229 8.69361C19.4725 8.34153 18.9835 8.03665 18.4632 7.7864C19.0309 7.51505 19.4667 7.22062 19.7664 6.92538C20.1284 6.56875 20.25 6.2565 20.25 6C20.25 5.7435 20.1284 5.43125 19.7664 5.07462C19.4017 4.71539 18.8356 4.35736 18.0755 4.04066C16.5586 3.40861 14.411 3 12 3C9.58899 3 7.44141 3.40861 5.9245 4.04066C5.16441 4.35736 4.59826 4.71539 4.2336 5.07462Z" fill="white"/>
<path id="Vector" d="M15 23C19.4183 23 23 19.4183 23 15C23 10.5817 19.4183 7 15 7C10.5817 7 7 10.5817 7 15C7 19.4183 10.5817 23 15 23Z" stroke="white" stroke-width="1.5" stroke-linejoin="round"/>
</g>
</svg>
