<svg width="40" height="40" viewBox="0 0 40 40" fill="none" xmlns="http://www.w3.org/2000/svg">
<rect width="40" height="40" rx="8" fill="#11131C"/>
<path d="M26.9419 13.34C25.6279 12.705 24.2407 12.2545 22.8158 12C22.6208 12.3679 22.4443 12.7465 22.2872 13.1341C20.7694 12.8927 19.2258 12.8927 17.708 13.1341C17.5508 12.7465 17.3744 12.368 17.1795 12C15.7536 12.2566 14.3655 12.7082 13.0502 13.3433C10.4389 17.4213 9.73099 21.3981 10.0849 25.3184C11.6142 26.511 13.3258 27.418 15.1455 28C15.5552 27.4183 15.9178 26.8012 16.2293 26.1553C15.6376 25.922 15.0665 25.6342 14.5225 25.2951C14.6657 25.1856 14.8057 25.0726 14.941 24.9631C16.5236 25.7487 18.251 26.156 20 26.156C21.7489 26.156 23.4763 25.7487 25.0589 24.9631C25.1958 25.0809 25.3358 25.1939 25.4774 25.2951C24.9324 25.6347 24.3602 25.9231 23.7675 26.1569C24.0786 26.8026 24.4412 27.4192 24.8513 28C26.6725 27.4204 28.3855 26.5138 29.915 25.32C30.3303 20.7738 29.2055 16.8335 26.9419 13.34ZM16.6776 22.9074C15.6913 22.9074 14.8765 21.9626 14.8765 20.8003C14.8765 19.638 15.663 18.6849 16.6745 18.6849C17.686 18.6849 18.4945 19.638 18.4772 20.8003C18.4599 21.9626 17.6828 22.9074 16.6776 22.9074ZM23.3223 22.9074C22.3344 22.9074 21.5227 21.9626 21.5227 20.8003C21.5227 19.638 22.3092 18.6849 23.3223 18.6849C24.3353 18.6849 25.1376 19.638 25.1203 20.8003C25.103 21.9626 24.3275 22.9074 23.3223 22.9074Z" fill="white"/>
</svg>
