<svg width="57" height="56" viewBox="0 0 57 56" fill="none" xmlns="http://www.w3.org/2000/svg">
<rect x="0.666664" width="56" height="56" rx="8" fill="#2A2C36"/>
<path fill-rule="evenodd" clip-rule="evenodd" d="M23.4167 19C23.0188 19 22.6373 19.158 22.356 19.4393C22.0747 19.7206 21.9167 20.1022 21.9167 20.5V35.5C21.9167 35.8978 22.0747 36.2794 22.356 36.5607C22.6373 36.842 23.0188 37 23.4167 37H33.9167C34.3145 37 34.696 36.842 34.9773 36.5607C35.2586 36.2794 35.4167 35.8978 35.4167 35.5V26.3712C35.4167 26.3712 35.4167 26.3712 35.4167 26.3712C35.4166 26.1724 35.3376 25.9816 35.1971 25.8411L28.5756 19.2196C28.5756 19.2196 28.5756 19.2196 28.5756 19.2196C28.435 19.0791 28.2443 19.0001 28.0456 19C28.0455 19 28.0456 19 28.0456 19H23.4167ZM21.2953 18.3787C21.858 17.8161 22.621 17.5 23.4167 17.5H28.0456C28.6421 17.5001 29.2143 17.7371 29.6362 18.1588L36.2578 24.7805C36.6795 25.2023 36.9166 25.7745 36.9167 26.371V35.5C36.9167 36.2956 36.6006 37.0587 36.038 37.6213C35.4754 38.1839 34.7123 38.5 33.9167 38.5H23.4167C22.621 38.5 21.858 38.1839 21.2953 37.6213C20.7327 37.0587 20.4167 36.2956 20.4167 35.5V20.5C20.4167 19.7044 20.7327 18.9413 21.2953 18.3787Z" fill="white"/>
<path fill-rule="evenodd" clip-rule="evenodd" d="M28.6667 17.875C29.0809 17.875 29.4167 18.2108 29.4167 18.625V24.25C29.4167 24.4489 29.4957 24.6397 29.6363 24.7803C29.777 24.921 29.9678 25 30.1667 25H35.7917C36.2059 25 36.5417 25.3358 36.5417 25.75C36.5417 26.1642 36.2059 26.5 35.7917 26.5H30.1667C29.5699 26.5 28.9976 26.2629 28.5757 25.841C28.1537 25.419 27.9167 24.8467 27.9167 24.25V18.625C27.9167 18.2108 28.2525 17.875 28.6667 17.875Z" fill="white"/>
<path fill-rule="evenodd" clip-rule="evenodd" d="M24.1667 29.5C24.1667 29.0858 24.5025 28.75 24.9167 28.75H32.4167C32.8309 28.75 33.1667 29.0858 33.1667 29.5C33.1667 29.9142 32.8309 30.25 32.4167 30.25H24.9167C24.5025 30.25 24.1667 29.9142 24.1667 29.5Z" fill="white"/>
<path fill-rule="evenodd" clip-rule="evenodd" d="M24.1667 33.25C24.1667 32.8358 24.5025 32.5 24.9167 32.5H32.4167C32.8309 32.5 33.1667 32.8358 33.1667 33.25C33.1667 33.6642 32.8309 34 32.4167 34H24.9167C24.5025 34 24.1667 33.6642 24.1667 33.25Z" fill="white"/>
</svg>
