<svg width="40" height="40" viewBox="0 0 40 40" fill="none" xmlns="http://www.w3.org/2000/svg">
<rect width="40" height="40" rx="8" fill="#11131C"/>
<path d="M24.3748 11.2498C25.5342 11.2533 26.6451 11.7154 27.4648 12.5352C28.2846 13.3549 28.7467 14.4658 28.7502 15.6252V24.3748C28.7467 25.5342 28.2846 26.6451 27.4648 27.4648C26.6451 28.2846 25.5342 28.7467 24.3748 28.7502H15.6252C14.4658 28.7467 13.3549 28.2846 12.5352 27.4648C11.7154 26.6451 11.2533 25.5342 11.2498 24.3748V15.6252C11.2533 14.4658 11.7154 13.3549 12.5352 12.5352C13.3549 11.7154 14.4658 11.2533 15.6252 11.2498H24.3748ZM24.3748 9.5H15.6252C12.2562 9.5 9.5 12.2562 9.5 15.6252V24.3748C9.5 27.7437 12.2562 30.5 15.6252 30.5H24.3748C27.7437 30.5 30.5 27.7437 30.5 24.3748V15.6252C30.5 12.2562 27.7437 9.5 24.3748 9.5Z" fill="white"/>
<path d="M25.6873 15.6252C25.4278 15.6252 25.174 15.5482 24.9582 15.404C24.7423 15.2597 24.5741 15.0548 24.4748 14.8149C24.3754 14.5751 24.3494 14.3112 24.4001 14.0566C24.4507 13.802 24.5757 13.5681 24.7593 13.3846C24.9428 13.201 25.1767 13.076 25.4313 13.0254C25.6859 12.9747 25.9498 13.0007 26.1896 13.1001C26.4294 13.1994 26.6344 13.3676 26.7786 13.5835C26.9229 13.7993 26.9998 14.0531 26.9998 14.3127C27.0002 14.4851 26.9665 14.656 26.9007 14.8154C26.8349 14.9748 26.7382 15.1196 26.6162 15.2416C26.4943 15.3635 26.3495 15.4602 26.1901 15.526C26.0306 15.5918 25.8598 15.6255 25.6873 15.6252Z" fill="white"/>
<path d="M20 16.4998C20.6923 16.4998 21.369 16.7051 21.9446 17.0897C22.5202 17.4743 22.9688 18.021 23.2337 18.6605C23.4986 19.3001 23.568 20.0039 23.4329 20.6828C23.2978 21.3618 22.9645 21.9855 22.475 22.475C21.9855 22.9645 21.3618 23.2978 20.6828 23.4329C20.0039 23.568 19.3001 23.4986 18.6605 23.2337C18.021 22.9688 17.4743 22.5202 17.0897 21.9446C16.7051 21.369 16.4998 20.6923 16.4998 20C16.5008 19.072 16.8699 18.1823 17.5261 17.5261C18.1823 16.8699 19.072 16.5008 20 16.4998ZM20 14.75C18.9616 14.75 17.9466 15.0579 17.0833 15.6348C16.2199 16.2117 15.547 17.0316 15.1496 17.9909C14.7523 18.9502 14.6483 20.0058 14.8509 21.0242C15.0535 22.0426 15.5535 22.9781 16.2877 23.7123C17.0219 24.4465 17.9574 24.9466 18.9758 25.1491C19.9942 25.3517 21.0498 25.2477 22.0091 24.8504C22.9684 24.453 23.7883 23.7801 24.3652 22.9167C24.9421 22.0534 25.25 21.0384 25.25 20C25.25 18.6076 24.6969 17.2723 23.7123 16.2877C22.7277 15.3031 21.3924 14.75 20 14.75Z" fill="white"/>
</svg>
