<svg width="40" height="40" viewBox="0 0 40 40" fill="none" xmlns="http://www.w3.org/2000/svg">
<rect width="40" height="40" rx="8" fill="#11131C"/>
<g clip-path="url(#clip0_5_531)">
<path d="M23.1875 20C22.8537 20 22.5275 20.099 22.25 20.2844C21.9725 20.4698 21.7562 20.7334 21.6285 21.0417C21.5007 21.3501 21.4673 21.6894 21.5324 22.0167C21.5975 22.3441 21.7583 22.6447 21.9943 22.8807C22.2303 23.1167 22.5309 23.2775 22.8583 23.3426C23.1856 23.4077 23.5249 23.3743 23.8333 23.2465C24.1416 23.1188 24.4052 22.9025 24.5906 22.625C24.776 22.3475 24.875 22.0213 24.875 21.6875C24.875 21.2399 24.6972 20.8107 24.3807 20.4943C24.0643 20.1778 23.6351 20 23.1875 20Z" fill="white"/>
<path d="M17.4584 23.2465C18.3195 22.8898 18.7283 21.9027 18.3717 21.0417C18.015 20.1806 17.0279 19.7717 16.1669 20.1284C15.3058 20.485 14.8969 21.4722 15.2536 22.3332C15.6102 23.1943 16.5974 23.6031 17.4584 23.2465Z" fill="white"/>
<path d="M31.25 19.8955C31.25 18.4334 30.0716 17.2442 28.625 17.2442C28.0153 17.2442 27.4248 17.4574 26.9558 17.847C25.3152 16.7328 23.1692 16.0508 20.8784 15.9125L21.9097 12.2094L25.0227 12.8281C25.1117 14.0694 26.1477 15.0542 27.3969 15.0542C28.7094 15.0542 29.7772 13.9761 29.7772 12.6537C29.7772 11.3314 28.6719 10.25 27.3594 10.25C26.4439 10.25 25.6573 10.7745 25.257 11.5986L21.0383 10.76L19.5805 15.8937L19.3634 15.8998C16.9902 16.0034 14.7538 16.6934 13.0461 17.8466C12.5772 17.4555 11.9855 17.2422 11.375 17.2442C9.92703 17.2442 8.75 18.4334 8.75 19.8955C8.74794 20.3608 8.86867 20.8185 9.10002 21.2223C9.33137 21.626 9.66515 21.9616 10.0677 22.1952C10.0396 22.4024 10.0257 22.6113 10.0259 22.8205C10.0311 24.6833 11.0802 26.4298 12.9791 27.7423C14.8606 29.0361 17.352 29.75 20 29.75C22.648 29.75 25.145 29.0361 27.0233 27.7395C28.9231 26.427 29.9694 24.68 29.9694 22.8148C29.9689 22.6064 29.9558 22.3982 29.93 22.1914C30.3328 21.9589 30.6669 21.6241 30.8987 21.2209C31.1305 20.8178 31.2517 20.3605 31.25 19.8955ZM27.4063 11.5156C27.6288 11.5156 27.8463 11.5816 28.0313 11.7052C28.2163 11.8288 28.3605 12.0045 28.4456 12.2101C28.5308 12.4157 28.553 12.6419 28.5096 12.8601C28.4662 13.0783 28.3591 13.2788 28.2017 13.4361C28.0444 13.5935 27.844 13.7006 27.6257 13.744C27.4075 13.7874 27.1813 13.7651 26.9757 13.68C26.7702 13.5948 26.5945 13.4506 26.4708 13.2656C26.3472 13.0806 26.2813 12.8631 26.2813 12.6406C26.2813 12.3423 26.3998 12.0561 26.6108 11.8451C26.8217 11.6342 27.1079 11.5156 27.4063 11.5156ZM10.0025 19.8955C10.0011 19.528 10.1456 19.1751 10.4041 18.914C10.6626 18.6529 11.0141 18.505 11.3816 18.5028C11.6043 18.5033 11.8236 18.5585 12.02 18.6636C11.2934 19.3391 10.7577 20.0891 10.423 20.8986C10.2903 20.7673 10.1848 20.6111 10.1127 20.439C10.0405 20.2668 10.0031 20.0821 10.0025 19.8955ZM26.3197 26.7031C24.6444 27.8558 22.4009 28.4909 20.0023 28.4909C17.6038 28.4909 15.3594 27.8567 13.6855 26.7031C12.1386 25.6348 11.2836 24.2534 11.2836 22.8125C11.2845 22.3759 11.363 21.9429 11.5156 21.5338C11.7819 20.7959 12.2731 20.105 12.9758 19.4811C13.1953 19.2872 13.4264 19.1067 13.6677 18.9406L13.6817 18.9308L13.693 18.9228C15.3673 17.7734 17.608 17.1416 20.0028 17.1416C22.3977 17.1416 24.6388 17.7748 26.3131 18.9228L26.3239 18.9308L26.3398 18.9425C26.5808 19.1079 26.8117 19.2876 27.0313 19.4806C27.7344 20.105 28.2256 20.7955 28.4919 21.5342C28.5885 21.8023 28.6562 22.08 28.6939 22.3625C28.7127 22.5125 28.7221 22.6636 28.722 22.8148C28.7216 24.2548 27.8684 25.6362 26.3197 26.7031ZM29.5822 20.8944C29.248 20.0844 28.7122 19.3339 27.9852 18.6575C28.1824 18.5535 28.4021 18.4994 28.625 18.5C28.9924 18.5022 29.3439 18.6501 29.6023 18.9112C29.8608 19.1723 30.0051 19.5253 30.0036 19.8927C30.0033 20.0794 29.9658 20.2641 29.8935 20.4363C29.8212 20.6084 29.7153 20.7644 29.5822 20.8953V20.8944Z" fill="white"/>
<path d="M23.1514 24.9791C23.1397 24.9908 21.9533 26.2011 20.0038 26.2105C18.035 26.2011 16.8969 25.0278 16.8486 24.9791C16.8123 24.943 16.7631 24.9228 16.712 24.9228C16.6608 24.9228 16.6117 24.943 16.5753 24.9791L15.9331 25.6105C15.9149 25.6286 15.9005 25.6501 15.8906 25.6737C15.8807 25.6974 15.8757 25.7229 15.8757 25.7485C15.8757 25.7742 15.8807 25.7996 15.8906 25.8233C15.9005 25.847 15.9149 25.8685 15.9331 25.8866C16.0925 26.0459 17.5597 27.4911 20.0009 27.5014C22.4356 27.4911 23.9094 26.0459 24.0688 25.8866C24.087 25.8684 24.1014 25.8469 24.1113 25.8232C24.1212 25.7994 24.1263 25.774 24.1263 25.7483C24.1263 25.7226 24.1212 25.6971 24.1113 25.6734C24.1014 25.6497 24.087 25.6281 24.0688 25.61L23.4261 24.9786C23.3899 24.9427 23.3409 24.9226 23.2899 24.9226C23.2389 24.9226 23.19 24.9427 23.1538 24.9786L23.1514 24.9791Z" fill="white"/>
</g>
<defs>
<clipPath id="clip0_5_531">
<rect width="24" height="24" fill="white" transform="translate(8 8)"/>
</clipPath>
</defs>
</svg>
