<svg width="56" height="56" viewBox="0 0 56 56" fill="none" xmlns="http://www.w3.org/2000/svg">
<rect width="56" height="56" rx="8" fill="#2A2C36"/>
<path fill-rule="evenodd" clip-rule="evenodd" d="M20.7197 27.9678C20.4268 27.6749 20.4268 27.2001 20.7197 26.9072L27.4697 20.1572C27.7626 19.8643 28.2374 19.8643 28.5303 20.1572L35.2803 26.9072C35.5732 27.2001 35.5732 27.6749 35.2803 27.9678C34.9874 28.2607 34.5126 28.2607 34.2197 27.9678L28.75 22.4982L28.75 35.3125C28.75 35.7267 28.4142 36.0625 28 36.0625C27.5858 36.0625 27.25 35.7267 27.25 35.3125L27.25 22.4982L21.7803 27.9678C21.4874 28.2607 21.0126 28.2607 20.7197 27.9678Z" fill="white"/>
</svg>
