<svg width="56" height="56" viewBox="0 0 56 56" fill="none" xmlns="http://www.w3.org/2000/svg">
<rect width="56" height="56" rx="8" fill="#2A2C36"/>
<path d="M34.8438 23.875C34.7065 25.7814 33.2923 27.25 31.7501 27.25C30.2079 27.25 28.7913 25.7819 28.6563 23.875C28.5157 21.8917 29.8924 20.5 31.7501 20.5C33.6077 20.5 34.9844 21.9278 34.8438 23.875Z" stroke="white" stroke-width="1.5" stroke-linecap="round" stroke-linejoin="round"/>
<path fill-rule="evenodd" clip-rule="evenodd" d="M24.294 34.5409C25.1441 31.1276 28.4981 29.5 31.7501 29.5C34.9957 29.5 38.3573 31.0757 39.2074 34.5438C39.3928 35.2993 38.9234 36.25 37.9296 36.25H25.571C24.5798 36.25 24.1045 35.3013 24.2939 34.5411M25.7905 34.75H37.711C37.028 32.3102 34.5578 31 31.7501 31C28.9517 31 26.4757 32.3494 25.7905 34.75Z" fill="white"/>
<path d="M25.375 24.7159C25.2653 26.2384 24.1225 27.4375 22.8906 27.4375C21.6587 27.4375 20.5141 26.2389 20.4062 24.7159C20.2942 23.132 21.4066 22 22.8906 22C24.3747 22 25.487 23.1611 25.375 24.7159Z" stroke="white" stroke-width="1.5" stroke-linecap="round" stroke-linejoin="round"/>
<path fill-rule="evenodd" clip-rule="evenodd" d="M16.7887 33.1974C17.4912 30.3788 20.256 29.0569 22.8906 29.0569C23.9516 29.0569 24.9974 29.2168 25.9687 29.6618C26.3452 29.8343 26.5106 30.2794 26.3381 30.656C26.1656 31.0326 25.7204 31.198 25.3439 31.0254C24.6229 30.6951 23.8049 30.5569 22.8906 30.5569C20.775 30.5569 18.9344 31.5391 18.3367 33.2499H23.2188C23.633 33.2499 23.9688 33.5856 23.9688 33.9999C23.9688 34.4141 23.633 34.7499 23.2188 34.7499H17.9556C17.0454 34.7499 16.6198 33.879 16.7884 33.1984L16.7887 33.1974Z" fill="white"/>
</svg>
