<svg width="40" height="40" viewBox="0 0 40 40" fill="none" xmlns="http://www.w3.org/2000/svg">
<rect width="40" height="40" rx="8" fill="#11131C"/>
<path fill-rule="evenodd" clip-rule="evenodd" d="M30.148 11.4246C30.352 11.5952 30.4504 11.861 30.4067 12.1232L27.74 28.1232C27.6982 28.3743 27.5319 28.587 27.2983 28.6881C27.0648 28.7893 26.7959 28.7652 26.5842 28.624L18.5842 23.2907C18.4093 23.1741 18.2913 22.9894 18.2591 22.7817C18.2268 22.574 18.2832 22.3622 18.4145 22.1981L20.7301 19.3036L16.7496 21.9573C16.5256 22.1066 16.2388 22.1245 15.9981 22.0041L10.6648 19.3374C10.3961 19.2031 10.2335 18.9213 10.2516 18.6214C10.2697 18.3215 10.465 18.0614 10.7479 17.9603L29.4146 11.2936C29.665 11.2042 29.944 11.254 30.148 11.4246ZM12.9076 18.7818L16.2796 20.4678L23.9175 15.3759C24.2252 15.1708 24.6365 15.2205 24.8864 15.4931C25.1362 15.7657 25.1502 16.1797 24.9192 16.4685L20.0969 22.4964L26.4511 26.7325L28.7173 13.1355L12.9076 18.7818Z" fill="white"/>
</svg>
