<svg width="57" height="56" viewBox="0 0 57 56" fill="none" xmlns="http://www.w3.org/2000/svg">
<rect x="0.333328" width="56" height="56" rx="8" fill="#2A2C36"/>
<path fill-rule="evenodd" clip-rule="evenodd" d="M18.3333 28C18.3333 22.4774 22.8107 18 28.3333 18C33.8559 18 38.3333 22.4774 38.3333 28C38.3333 33.5226 33.8559 38 28.3333 38C22.8107 38 18.3333 33.5226 18.3333 28ZM28.3333 19.4286C23.5997 19.4286 19.7619 23.2664 19.7619 28C19.7619 32.7336 23.5997 36.5714 28.3333 36.5714C33.067 36.5714 36.9048 32.7336 36.9048 28C36.9048 23.2664 33.067 19.4286 28.3333 19.4286Z" fill="white"/>
<path fill-rule="evenodd" clip-rule="evenodd" d="M24.2219 21.0872C25.1988 19.3287 26.6436 18 28.3335 18C30.0234 18 31.4682 19.3287 32.445 21.0872C33.4447 22.887 34.0777 25.3307 34.0777 28C34.0777 30.6693 33.4447 33.113 32.445 34.9128C31.4682 36.6713 30.0234 38 28.3335 38C26.6436 38 25.1988 36.6713 24.2219 34.9128C23.2222 33.113 22.5893 30.6693 22.5893 28C22.5893 25.3307 23.2222 22.887 24.2219 21.0872ZM25.4708 21.7809C24.6037 23.342 24.0179 25.5412 24.0179 28C24.0179 30.4588 24.6037 32.658 25.4708 34.2191C26.3608 35.8214 27.431 36.5714 28.3335 36.5714C29.236 36.5714 30.3061 35.8214 31.1962 34.2191C32.0633 32.658 32.6491 30.4588 32.6491 28C32.6491 25.5412 32.0633 23.342 31.1962 21.7809C30.3061 20.1786 29.236 19.4286 28.3335 19.4286C27.431 19.4286 26.3608 20.1786 25.4708 21.7809Z" fill="white"/>
<path fill-rule="evenodd" clip-rule="evenodd" d="M21.56 21.3958C21.7884 21.0741 22.2343 20.9985 22.556 21.2269C24.1421 22.353 26.1467 23.0298 28.3331 23.0298C30.5195 23.0298 32.524 22.353 34.1102 21.2269C34.4318 20.9985 34.8777 21.0741 35.1061 21.3958C35.3345 21.7175 35.2589 22.1634 34.9372 22.3917C33.1091 23.6897 30.8154 24.4584 28.3331 24.4584C25.8507 24.4584 23.5571 23.6897 21.7289 22.3917C21.4073 22.1634 21.3316 21.7175 21.56 21.3958Z" fill="white"/>
<path fill-rule="evenodd" clip-rule="evenodd" d="M21.7289 33.6081C23.5571 32.3102 25.8507 31.5414 28.3331 31.5414C30.8154 31.5414 33.1091 32.3102 34.9372 33.6081C35.2589 33.8365 35.3345 34.2824 35.1061 34.6041C34.8777 34.9257 34.4318 35.0013 34.1102 34.773C32.524 33.6468 30.5195 32.97 28.3331 32.97C26.1467 32.97 24.1421 33.6468 22.556 34.773C22.2343 35.0013 21.7884 34.9257 21.56 34.6041C21.3316 34.2824 21.4073 33.8365 21.7289 33.6081Z" fill="white"/>
<path fill-rule="evenodd" clip-rule="evenodd" d="M27.619 37.2857V18.7143H29.0476V37.2857H27.619Z" fill="white"/>
<path fill-rule="evenodd" clip-rule="evenodd" d="M19.0476 27.2857H37.619V28.7143H19.0476V27.2857Z" fill="white"/>
</svg>
